PathFileType	4	(x/y/z)	S02_PSF_T02
DataRate	CameraRate	NumFrames	NumMarkers	Units	OrigDataRate	OrigDataStartFrame	OrigNumFrames
240	240	9	51	mm	240	257	410
Frame#	Time	Sternum			R.Acromium			L.Acromium			Top.Head			R.ASIS			L.ASIS			R.PSIS			L.PSIS			R.Great.Tro			L.Great.Tro			R.Iliac.Crest			L.Iliac.Crest			V.Sacral			R.Thigh.Upper.Post			R.Thigh.Lower.Ant			R.Thigh.Lower.Post			R.Thigh.Upper.Ant			R.Knee.Lat			R.Knee.Med			R.Shank.Upper.Post			R.Shank.Lower.Ant			R.Shank.Lower.Post			R.Shank.Upper.Ant			R.Ankle.Lat			R.Ankle.Med			R.Heel.Upper			R.Heel.Med			R.Heel.Lat			R.Toe.Lat			R.Toe.Med			R.Toe.Tip			L.Thigh.Upper.Post			L.Thigh.Lower.Ant			L.Thigh.Lower.Post			L.Thigh.Upper.Ant			L.Knee.Lat			L.Knee.Med			L.Shank.Upper.Post			L.Shank.Lower.Ant			L.Shank.Lower.Post			L.Shank.Upper.Ant			L.Ankle.Lat			L.Ankle.Med			L.Heel.Upper			L.Heel.Med			L.Heel.Lat			L.Toe.Lat			L.Toe.Med			L.Toe.Tip			Cervical.Spine			Back			
		X1	Y1	Z1	X2	Y2	Z2	X3	Y3	Z3	X4	Y4	Z4	X5	Y5	Z5	X6	Y6	Z6	X7	Y7	Z7	X8	Y8	Z8	X9	Y9	Z9	X10	Y10	Z10	X11	Y11	Z11	X12	Y12	Z12	X13	Y13	Z13	X14	Y14	Z14	X15	Y15	Z15	X16	Y16	Z16	X17	Y17	Z17	X18	Y18	Z18	X19	Y19	Z19	X20	Y20	Z20	X21	Y21	Z21	X22	Y22	Z22	X23	Y23	Z23	X24	Y24	Z24	X25	Y25	Z25	X26	Y26	Z26	X27	Y27	Z27	X28	Y28	Z28	X29	Y29	Z29	X30	Y30	Z30	X31	Y31	Z31	X32	Y32	Z32	X33	Y33	Z33	X34	Y34	Z34	X35	Y35	Z35	X36	Y36	Z36	X37	Y37	Z37	X38	Y38	Z38	X39	Y39	Z39	X40	Y40	Z40	X41	Y41	Z41	X42	Y42	Z42	X43	Y43	Z43	X44	Y44	Z44	X45	Y45	Z45	X46	Y46	Z46	X47	Y47	Z47	X48	Y48	Z48	X49	Y49	Z49	X50	Y50	Z50	X51	Y51	Z51	

257	1.0667	-26.687	1063.5	335.11	-118.69	1305.7	477.92	-134.53	1307.6	185.07	-99.647	1597.2	335.97	-74.981	898.97	447.17	-44.95	893.11	239.56	-275.78	946.59	363.15	-269.06	949.61	288.75	-177.99	778.39	527.51	-138.73	790.45	136.65	-185.55	943.1	492.47	-158.65	945.98	157.71	-303.42	906.12	316.41	-233.86	591.9	498.16	-203.81	501.43	459.27	-274.66	513.96	473.28	-167.44	580.56	481.44	-286.01	434.5	454.3	-292.68	429.4	309.07	-432.51	268.17	425.27	-389.5	167.35	404.2	-451.06	197.4	411.81	-368.39	231.09	425.45	-465.85	102.59	393.05	-452.84	120.78	312.82	-531.7	92.592	335.29	-520.49	59.71	307.93	-532.17	61.173	371.08	-374.43	37.503	417.64	-338.79	32.866	311.75	-290.96	56.066	368.57	-82.522	574.55	160.27	17.788	533.44	180.45	-50.03	493.3	187.21	-23.83	615.3	153.78	32.983	456.28	190.59	12.35	449.62	332.81	25.454	267.67	194.63	126.73	221.21	208.15	56.511	201.28	211.77	88.555	285.73	191.64	136.31	108.81	222.71	151.19	115.23	303.71	98.211	55.118	258.32	117.11	37.342	294.56	116.28	29.22	233.2	269.98	87.391	200.96	282.5	114.6	306.56	329.21	153.32	258.36	-201.55	1370.9	340.5	-285.87	1122.8	346.12
258	1.0708	-20.85	1062	334.84	-112.74	1304.5	477.21	-128.63	1306.3	184.4	-94.004	1596.1	335.15	-69.386	897.74	447.26	-38.887	891.79	239.42	-270.14	945.36	362.77	-263.34	948.39	288.37	-172.6	777.32	527.36	-132.74	789.64	136.48	-180.2	941.92	492.24	-152.71	944.68	157.44	-297.68	904.87	316.02	-228.76	590.93	498.06	-198.81	500.38	459.26	-269.66	513.06	473.17	-162.35	579.45	481.42	-281.3	433.62	454.22	-287.7	428.45	309.06	-429.59	268.93	425.4	-387.95	167.56	404.38	-449.05	198.35	412.05	-366.04	231.1	425.54	-465.01	103.61	393.4	-451.96	121.74	313.13	-531.03	94.255	335.71	-520.1	61.416	308.17	-531.75	62.653	371.33	-374.3	37.39	417.66	-338.72	32.843	311.79	-290.87	55.856	368.54	-76.032	573.76	160.4	24.35	532.86	180.6	-43.379	492.59	187.47	-17.455	614.59	153.81	39.53	455.53	190.9	19.555	449.34	332.97	30.717	267.03	194.97	131.48	219.7	208.94	61.107	200.37	212.15	93.955	284.54	192.34	140.09	107.64	223.28	154.61	113.62	304.48	101.24	54.896	258.59	119.56	36.675	294.84	119.01	28.874	233.44	273.52	84.826	202.2	285.75	111.57	308.01	333.18	149.71	260.17	-195.68	1369.9	339.8	-280.06	1121.7	345.63
259	1.075	-14.976	1060.6	334.55	-106.78	1303.5	476.49	-122.71	1305.1	183.71	-88.352	1595.1	334.33	-63.728	896.57	447.32	-32.794	890.58	239.26	-264.47	944.18	362.42	-257.6	947.24	288.03	-167.13	776.28	527.21	-126.7	788.94	136.3	-174.77	940.79	492.01	-146.76	943.47	157.18	-291.89	903.65	315.65	-223.55	589.98	497.93	-193.69	499.36	459.27	-264.54	512.16	473.07	-157.15	578.38	481.41	-276.45	432.74	454.14	-282.58	427.49	309.04	-426.55	269.75	425.54	-386.34	167.84	404.59	-446.95	199.4	412.3	-363.6	231.16	425.65	-464.1	104.72	393.78	-450.97	122.77	313.48	-530.25	96.078	336.16	-519.63	63.288	308.44	-531.28	64.285	371.61	-374.15	37.279	417.69	-338.66	32.829	311.83	-290.77	55.645	368.51	-69.571	573.01	160.55	30.878	532.32	180.74	-36.768	491.94	187.75	-11.104	613.92	153.84	46.048	454.82	191.2	26.759	449.13	333.12	35.822	266.43	195.33	136.03	218.15	209.74	65.494	199.48	212.53	99.207	283.35	193.04	143.56	106.46	223.85	157.73	111.96	305.25	103.9	54.785	258.86	121.6	36.079	295.11	121.31	28.623	233.66	276.68	82.076	203.38	288.68	108.31	309.41	336.89	145.78	261.92	-189.81	1369	339.08	-274.2	1120.8	345.13
260	1.0792	-9.0642	1059.3	334.25	-100.82	1302.5	475.74	-116.79	1303.9	183.01	-82.693	1594.2	333.5	-58.005	895.48	447.35	-26.674	889.48	239.08	-258.75	943.05	362.1	-251.83	946.17	287.71	-161.58	775.26	527.06	-120.64	788.33	136.11	-169.25	939.71	491.78	-140.81	942.35	156.93	-286.05	902.48	315.31	-218.23	589.05	497.78	-188.43	498.35	459.28	-259.28	511.28	472.95	-151.84	577.34	481.41	-271.46	431.87	454.08	-277.32	426.52	309.03	-423.39	270.64	425.68	-384.65	168.19	404.83	-444.74	200.53	412.57	-361.06	231.29	425.79	-463.1	105.93	394.2	-449.87	123.9	313.88	-529.37	98.073	336.66	-519.08	65.336	308.75	-530.73	66.081	371.92	-373.99	37.173	417.73	-338.61	32.823	311.88	-290.68	55.433	368.47	-63.146	572.32	160.7	37.366	531.8	180.87	-30.206	491.33	188.05	-4.7797	613.28	153.85	52.532	454.16	191.5	33.935	448.99	333.27	40.788	265.89	195.7	140.41	216.6	210.54	69.699	198.63	212.93	104.33	282.17	193.75	146.75	105.3	224.39	160.62	110.3	305.99	106.26	54.788	259.15	123.29	35.564	295.36	123.22	28.475	233.88	279.49	79.18	204.5	291.35	104.86	310.73	340.37	141.58	263.59	-183.92	1368.1	338.33	-268.31	1119.8	344.63
261	1.0833	-3.1137	1058.1	333.93	-94.854	1301.6	474.99	-110.85	1302.8	182.3	-77.025	1593.4	332.66	-52.217	894.46	447.36	-20.53	888.51	238.88	-252.98	941.98	361.8	-246.04	945.17	287.43	-155.95	774.27	526.89	-114.53	787.81	135.9	-163.64	938.69	491.56	-134.84	941.34	156.69	-280.16	901.36	315	-212.82	588.15	497.62	-183.04	497.38	459.3	-253.9	510.41	472.83	-146.41	576.35	481.41	-266.31	431.02	454.04	-271.91	425.55	309.03	-420.1	271.61	425.83	-382.88	168.62	405.13	-442.42	201.76	412.86	-358.42	231.47	425.96	-462.01	107.24	394.67	-448.63	125.12	314.33	-528.37	100.25	337.21	-518.44	67.57	309.08	-530.09	68.051	372.26	-373.82	37.073	417.78	-338.56	32.83	311.94	-290.6	55.22	368.43	-56.761	571.68	160.87	43.806	531.31	181	-23.7	490.77	188.36	1.514	612.69	153.84	58.976	453.55	191.8	41.055	448.91	333.4	45.635	265.41	196.09	144.63	215.05	211.32	73.753	197.84	213.33	109.33	281.02	194.46	149.7	104.17	224.93	163.29	108.66	306.71	108.35	54.906	259.44	124.67	35.142	295.59	124.8	28.433	234.07	282	76.18	205.55	293.79	101.27	311.99	343.64	137.17	265.17	-178.04	1367.3	337.56	-262.38	1119	344.12
262	1.0875	2.8753	1057.1	333.59	-88.896	1300.7	474.23	-104.9	1301.8	181.57	-71.35	1592.6	331.82	-46.364	893.51	447.33	-14.366	887.66	238.67	-247.17	940.98	361.53	-240.21	944.25	287.18	-150.23	773.32	526.73	-108.37	787.39	135.69	-157.95	937.74	491.34	-128.87	940.42	156.46	-274.23	900.3	314.71	-207.28	587.27	497.44	-177.5	496.44	459.34	-248.37	509.55	472.71	-140.86	575.4	481.42	-261	430.17	454.02	-266.34	424.57	309.05	-416.67	272.65	426	-381.01	169.13	405.47	-439.98	203.09	413.16	-355.67	231.73	426.17	-460.82	108.65	395.18	-447.25	126.44	314.83	-527.22	102.61	337.81	-517.7	69.999	309.46	-529.36	70.204	372.64	-373.62	36.982	417.84	-338.51	32.851	312.01	-290.51	55.006	368.39	-50.418	571.11	161.04	50.194	530.87	181.12	-17.257	490.28	188.68	7.7751	612.14	153.83	65.376	452.99	192.08	48.097	448.88	333.51	50.381	265	196.48	148.73	213.55	212.09	77.681	197.12	213.73	114.23	279.91	195.17	152.45	103.09	225.45	165.79	107.06	307.4	110.21	55.134	259.74	125.81	34.815	295.81	126.11	28.496	234.26	284.23	73.116	206.52	296.03	97.584	313.16	346.72	132.6	266.64	-172.15	1366.5	336.77	-256.42	1118.1	343.6
263	1.0917	8.9023	1056.2	333.23	-82.943	1300	473.47	-98.938	1300.9	180.83	-65.668	1591.9	330.97	-40.449	892.64	447.26	-8.1884	886.93	238.43	-241.31	940.05	361.3	-234.37	943.41	286.96	-144.44	772.39	526.55	-102.17	787.06	135.46	-152.15	936.85	491.13	-122.87	939.62	156.24	-268.25	899.3	314.45	-201.64	586.43	497.24	-171.81	495.53	459.39	-242.7	508.7	472.6	-135.18	574.51	481.43	-255.52	429.33	454.02	-260.61	423.59	309.09	-413.09	273.78	426.19	-379.04	169.74	405.87	-437.4	204.52	413.5	-352.78	232.05	426.43	-459.5	110.17	395.74	-445.71	127.87	315.4	-525.93	105.16	338.45	-516.84	72.632	309.87	-528.51	72.55	373.06	-373.4	36.905	417.91	-338.46	32.889	312.09	-290.43	54.79	368.35	-44.119	570.6	161.2	56.528	530.46	181.23	-10.88	489.85	189	14.003	611.64	153.81	71.729	452.51	192.36	55.039	448.91	333.61	55.045	264.68	196.87	152.72	212.1	212.83	81.508	196.49	214.13	119.05	278.86	195.86	155.02	102.07	225.94	168.13	105.52	308.06	111.89	55.463	260.04	126.74	34.587	296.02	127.19	28.659	234.43	286.23	70.026	207.42	298.1	93.856	314.24	349.62	127.93	268.01	-166.25	1365.9	335.96	-250.41	1117.4	343.08
264	1.0958	14.966	1055.3	332.86	-76.996	1299.4	472.72	-92.971	1300	180.07	-59.978	1591.2	330.12	-34.474	891.84	447.16	-2.0009	886.32	238.18	-235.4	939.19	361.1	-228.49	942.67	286.77	-138.56	771.49	526.37	-95.927	786.83	135.21	-146.26	936.04	490.93	-116.87	938.93	156.01	-262.22	898.39	314.21	-195.87	585.62	497.02	-165.96	494.66	459.46	-236.88	507.87	472.48	-129.37	573.67	481.44	-249.85	428.51	454.06	-254.71	422.6	309.16	-409.36	274.99	426.39	-376.94	170.43	406.33	-434.67	206.06	413.86	-349.75	232.45	426.74	-458.07	111.8	396.35	-443.99	129.39	316.02	-524.46	107.91	339.15	-515.84	75.479	310.32	-527.54	75.101	373.51	-373.15	36.845	418	-338.41	32.948	312.19	-290.34	54.57	368.32	-37.865	570.18	161.36	62.807	530.11	181.32	-4.5684	489.48	189.31	20.196	611.2	153.77	78.034	452.1	192.62	61.864	449	333.67	59.642	264.45	197.25	156.63	210.72	213.54	85.252	195.96	214.52	123.79	277.89	196.52	157.44	101.12	226.4	170.35	104.07	308.67	113.41	55.881	260.33	127.51	34.456	296.21	128.08	28.913	234.59	288.01	66.945	208.23	300.01	90.127	315.23	352.37	123.21	269.27	-160.35	1365.3	335.14	-244.38	1116.7	342.56
265	1.1	21.063	1054.7	332.47	-71.058	1298.8	471.97	-86.997	1299.2	179.31	-54.282	1590.7	329.26	-28.442	891.13	447.01	4.1905	885.84	237.91	-229.44	938.42	360.94	-222.58	942.02	286.61	-132.61	770.63	526.19	-89.631	786.68	134.95	-140.27	935.32	490.74	-110.85	938.36	155.78	-256.15	897.56	314	-189.98	584.85	496.79	-159.95	493.83	459.55	-230.9	507.05	472.37	-123.43	572.89	481.45	-243.99	427.7	454.14	-248.63	421.6	309.26	-405.45	276.29	426.63	-374.69	171.22	406.87	-431.79	207.7	414.26	-346.58	232.92	427.12	-456.48	113.55	397.01	-442.09	131.03	316.71	-522.8	110.87	339.9	-514.69	78.548	310.8	-526.43	77.864	374.01	-372.87	36.808	418.1	-338.36	33.033	312.29	-290.25	54.346	368.28	-31.654	569.83	161.5	69.032	529.81	181.4	1.6783	489.2	189.61	26.358	610.84	153.71	84.293	451.77	192.85	68.561	449.13	333.71	64.183	264.32	197.62	160.46	209.44	214.2	88.927	195.53	214.89	128.48	277	197.14	159.73	100.25	226.84	172.45	102.71	309.23	114.8	56.374	260.61	128.15	34.417	296.38	128.81	29.248	234.73	289.61	63.908	208.96	301.78	86.438	316.13	354.96	118.49	270.4	-154.46	1364.7	334.3	-238.31	1116.1	342.03
